#N canvas 142 22 1064 696 10;
#X obj -61 202 cnv 15 120 70 empty empty empty 20 12 0 14 -237566 -66577
0;
#X obj -32 211 dac~;
#X obj 270 200 cnv 15 330 190 empty empty empty 20 12 0 14 -261819
-66577 0;
#N canvas 0 22 450 278 (subpatch) 0;
#X array multiplication 300 float 0;
#X coords 0 1 299 -1 300 70 1 0 0;
#X restore 285 307 graph;
#X obj 297 235 metro 150;
#X obj 296 209 tgl 15 1 empty empty empty 17 7 0 10 -261234 -1 -1 1
1;
#X obj 72 201 cnv 15 160 180 empty empty empty 20 12 0 14 -228928 -66577
0;
#X obj 89 209 pvu~;
#X obj 90 251 vu 15 120 empty empty -1 -8 0 10 -66577 -1 1 0;
#X text 126 208 Volume Sonore;
#X text 126 223 en décibels (dB);
#X text -37 231 Sortie vers;
#X text -57 246 les haut-parleurs;
#X text 392 289 Valeurs reçues entre -1 et 1;
#X obj 296 264 tabwrite~ multiplication;
#X obj 336 -52 cnv 15 200 150 empty empty empty 20 12 0 14 -261873
-66577 0;
#X obj 382 -44 vsl 15 64 0 100 0 0 empty empty empty 0 -9 0 10 -262144
-1 -1 0 1;
#X obj 370 47 / 100;
#X floatatom 395 75 5 0 0 0 - - -;
#X text 410 -34 Règle le volume;
#X obj -135 -202 cnv 15 500 130 empty empty empty 20 12 0 16 -261015
-99865 0;
#X text -119 -97 Pour arrêter le son \, désactive DSP;
#X text -119 -193 Pour jouer le patch \, active DSP dans la fenêtre
principale de Pure Data;
#X text -119 -156 Connecte l'Arduino;
#X text -119 -133 Clique sur devices puis open et joue avec la photo-résistance
ou le potentiomètre.;
#X obj -114 -53 cnv 15 430 90 empty empty empty 20 12 0 14 -261873
-66577 0;
#X obj -70 -12 comport 9600;
#X msg -69 -42 devices;
#X msg -10 -40 open 2;
#X floatatom -70 11 5 0 0 0 - - -;
#X text 36 -14 entrées de l'Arduino par le port série;
#X obj -23 66 cnv 15 250 90 empty empty empty 20 12 0 14 -249849 -66577
0;
#X obj 1 78 osc~;
#X obj 82 121 *~;
#X connect 4 0 14 0;
#X connect 5 0 4 0;
#X connect 7 0 8 0;
#X connect 16 0 17 0;
#X connect 17 0 18 0;
#X connect 17 0 33 0;
#X connect 26 0 29 0;
#X connect 27 0 26 0;
#X connect 28 0 26 0;
#X connect 29 0 32 0;
#X connect 32 0 33 0;
#X connect 33 0 1 0;
#X connect 33 0 7 0;
#X connect 33 0 14 0;
