#N canvas 494 22 765 321 10;
#X obj 119 133 dac~;
#X obj 27 133 unsig~ 150;
#X floatatom 27 169 5 0 0 0 - - -;
#X text 70 169 affiche la valeur toutes les 150 ms;
#X obj 132 -29 hsl 128 15 0 127 0 0 empty empty empty -2 -8 0 10 -262144
-1 -1 0 1;
#X obj 128 13 mtof~;
#X text 170 12 [mtof] converti les notes MIDI (de 0 à 127) en fréquence.
;
#X obj 241 76 tgl 15 0 empty empty empty 17 7 0 10 -262144 -1 -1 0
1;
#X text 264 72 génère le graphe;
#X obj 241 100 metro 150;
#N canvas 226 207 450 278 (subpatch) 0;
#X array sawtooth 300 float 0;
#X coords 0 1 299 -1 200 140 1 0 0;
#X restore 350 105 graph;
#X floatatom 64 13 5 0 0 0 - - -;
#X obj 129 48 phasor~;
#X text 181 48 [phasor~] gènère des valeurs selon une forme en dent
de scie;
#X obj 228 131 tabwrite~ sawtooth;
#X text 270 -27 Le slider produit des valeurs en 0 et 127;
#X connect 1 0 2 0;
#X connect 4 0 5 0;
#X connect 4 0 11 0;
#X connect 5 0 12 0;
#X connect 7 0 9 0;
#X connect 9 0 14 0;
#X connect 12 0 0 0;
#X connect 12 0 0 1;
#X connect 12 0 1 0;
#X connect 12 0 14 0;
