#N canvas 726 89 450 300 10;
#X obj 128 67 osc~ 440;
#X obj 119 133 dac~;
#X floatatom 128 27 5 0 0 0 - - -;
#X text 185 66 génère des valeurs entre -1 et 1;
#X text 155 132 convertit la valeur en son sur les haut-parleurs;
#X text 170 28 Paramètre : modifie la fréquence;
#X obj 27 133 unsig~ 150;
#X floatatom 28 168 5 0 0 0 - - -;
#X text 70 169 affiche la valeur toutes les 150 ms;
#X connect 0 0 1 0;
#X connect 0 0 1 1;
#X connect 0 0 6 0;
#X connect 2 0 0 0;
#X connect 6 0 7 0;
