#N canvas 494 22 765 321 10;
#X obj 119 133 dac~;
#X obj 27 133 unsig~ 150;
#X floatatom 27 169 5 0 0 0 - - -;
#X text 70 169 affiche la valeur toutes les 150 ms;
#X obj 131 -23 hsl 128 15 0 127 0 0 empty empty empty -2 -8 0 10 -262144
-1 -1 0 1;
#X text 270 -24 Le slider produit des valuers en 0 et 127;
#X obj 128 13 mtof~;
#X text 170 12 [mtof] converti les notes MIDI (de 0 à 127) en fréquence.
;
#X obj 128 48 osc~;
#X text 169 47 [osc~] gènère une sinusoide avec la fonction cosinus
;
#X obj 228 131 tabwrite~ sine;
#X obj 241 75 tgl 15 0 empty empty empty 17 7 0 10 -262144 -1 -1 0
1;
#X text 264 72 génère le graphe;
#X obj 241 100 metro 150;
#N canvas 226 207 450 278 (subpatch) 0;
#X array sine 300 float 0;
#X coords 0 1 299 -1 200 140 1;
#X restore 350 105 graph;
#X floatatom 64 13 5 0 0 0 - - -;
#X connect 1 0 2 0;
#X connect 4 0 6 0;
#X connect 4 0 15 0;
#X connect 6 0 8 0;
#X connect 8 0 0 0;
#X connect 8 0 0 1;
#X connect 8 0 1 0;
#X connect 8 0 10 0;
#X connect 11 0 13 0;
#X connect 13 0 10 0;
