#N canvas 369 93 770 632 10;
#X obj 218 287 dac~;
#X obj 138 287 unsig~ 150;
#X floatatom 138 323 5 0 0 0 - - -;
#X obj 132 -20 hsl 128 15 0 127 0 0 empty empty empty -2 -8 0 10 -262144
-1 -1 0 1;
#X obj 129 29 mtof~;
#X obj 129 78 osc~;
#X obj 339 285 tabwrite~ sine;
#X obj 352 229 tgl 15 0 empty empty empty 17 7 0 10 -262144 -1 -1 0
1;
#X text 375 226 génère le graphe;
#X obj 352 254 metro 150;
#N canvas 226 207 450 278 (subpatch) 0;
#X array sine 300 float 0;
#X coords 0 2 299 -2 200 140 1 0 0;
#X restore 461 259 graph;
#X floatatom 64 13 5 0 0 0 - - -;
#X obj 355 -23 hsl 128 15 0 127 0 0 empty empty empty -2 -8 0 10 -262144
-1 -1 0 1;
#X obj 352 23 mtof~;
#X obj 352 58 osc~;
#X floatatom 288 13 5 0 0 0 - - -;
#X obj 226 160 +~;
#X text 255 158 l'addition de fréquences change la hauteur;
#X obj 291 341 pvu~;
#X obj 292 382 vu 15 120 empty empty -1 -8 0 10 -66577 -1 1 0;
#X text 227 513 affiche le nombre de décibels;
#X connect 1 0 2 0;
#X connect 3 0 4 0;
#X connect 3 0 11 0;
#X connect 4 0 5 0;
#X connect 5 0 16 0;
#X connect 7 0 9 0;
#X connect 9 0 6 0;
#X connect 12 0 13 0;
#X connect 12 0 15 0;
#X connect 13 0 14 0;
#X connect 14 0 16 1;
#X connect 16 0 1 0;
#X connect 16 0 0 0;
#X connect 16 0 0 1;
#X connect 16 0 6 0;
#X connect 16 0 18 0;
#X connect 18 0 19 0;
