#N canvas 304 23 770 632 10;
#X obj 218 287 dac~;
#X obj 138 287 unsig~ 150;
#X floatatom 138 323 5 0 0 0 - - -;
#X obj 129 29 mtof~;
#X obj 129 78 osc~;
#X obj 339 285 tabwrite~ sine;
#X obj 352 229 tgl 15 0 empty empty empty 17 7 0 10 -262144 -1 -1 1
1;
#X text 375 226 génère le graphe;
#X obj 352 254 metro 150;
#N canvas 226 207 450 278 (subpatch) 0;
#X array sine 300 float 0;
#X coords 0 2 299 -2 200 140 1 0 0;
#X restore 461 259 graph;
#X floatatom 64 13 5 0 0 0 - - -;
#X obj 291 341 pvu~;
#X obj 292 382 vu 15 120 empty empty -1 -8 0 10 -66577 -1 1 0;
#X text 227 513 affiche le nombre de décibels;
#X obj 132 -20 hsl 128 15 0 127 0 0 empty empty empty -2 -8 0 10 -262144
-1 -1 6400 1;
#X obj 325 -85 vsl 15 128 0 100 0 0 empty empty empty 0 -9 0 10 -262144
-1 -1 3400 1;
#X obj 325 69 / 100;
#X floatatom 357 106 5 0 0 0 - - -;
#X obj 59 146 unsig~ 150;
#X floatatom 59 182 5 0 0 0 - - -;
#X obj 226 160 *~;
#X text 255 158 la multiplication change le volume;
#X connect 1 0 2 0;
#X connect 3 0 4 0;
#X connect 4 0 20 0;
#X connect 4 0 18 0;
#X connect 6 0 8 0;
#X connect 8 0 5 0;
#X connect 11 0 12 0;
#X connect 14 0 3 0;
#X connect 14 0 10 0;
#X connect 15 0 16 0;
#X connect 16 0 17 0;
#X connect 16 0 20 1;
#X connect 18 0 19 0;
#X connect 20 0 1 0;
#X connect 20 0 0 0;
#X connect 20 0 0 1;
#X connect 20 0 5 0;
#X connect 20 0 11 0;
