#N canvas 445 52 682 692 10;
#X obj 88 94 osc~ 440;
#X obj 327 -154 slider 127 0 15;
#X text 349 -106 "slider";
#X obj 172 250 *~;
#X obj 155 336 dac~;
#X obj 327 63 / 127;
#X obj 328 126 nbx 5 14 -1e+37 1e+37 0 0 empty empty empty 0 -8 0 10
-262144 -1 -1 0 256;
#X obj 12 -66 *~ 20;
#X obj 13 11 +~ 440;
#X obj 43 -169 nbx 5 14 -1e+37 1e+37 0 0 empty empty empty 0 -8 0 10
-262144 -1 -1 0 256;
#X obj 325 341 vu 15 120 empty empty -1 -8 0 10 -66577 -1 1 0;
#X obj 324 301 pvu~;
#X obj 46 -16 nbx 5 14 -1e+37 1e+37 0 0 empty empty empty 0 -8 0 10
-262144 -1 -1 0 256;
#X obj -55 106 nbx 5 14 -1e+37 1e+37 0 0 empty empty empty 0 -8 0 10
-262144 -1 -1 0 256;
#X text 322 278 Affichage du volume;
#X text 337 107 sortie du controle de volume;
#X text 358 -94 Gain;
#X obj 359 16 nbx 5 14 -1e+37 1e+37 0 0 empty empty empty 0 -8 0 10
-262144 -1 -1 0 256;
#X text 365 -3 valeur du slider;
#X text 205 248 modifie l'amplitude;
#X text 42 -189 parametre: frequence du vibrato;
#X text 38 -110 parametre: amplitude du vibrato;
#X obj 55 329 nbx 5 14 -1e+37 1e+37 0 0 empty empty empty 0 -8 0 10
-262144 -1 -1 0 256;
#X obj 54 296 unsig~ 500;
#X text -131 123 sortie du controle de hauteur;
#X text -45 356 Digital Audio Converter Envoi le son sur les haut-parleurs
;
#X text 365 62 normalise entre 0 et 1;
#X obj 35 208 nbx 5 14 -1e+37 1e+37 0 0 empty empty empty 0 -8 0 10
-262144 -1 -1 0 256;
#X obj 13 -140 osc~ 5;
#X obj 34 169 unsig~ 150;
#X obj -56 67 unsig~ 150;
#X obj 39 -91 nbx 5 14 -1e+37 1e+37 0 0 empty empty empty 0 -8 0 10
-262144 -1 -1 0 256;
#X text 44 -34 parametre: frequence de la sinusoide;
#X text 59 -142 oscillateur du vibrato;
#X text -23 222 sortie de l'oscillateur;
#X text 95 72 oscillateur principal;
#X text 77 379;
#X connect 0 0 3 0;
#X connect 0 0 29 0;
#X connect 1 0 5 0;
#X connect 1 0 17 0;
#X connect 3 0 4 0;
#X connect 3 0 4 1;
#X connect 3 0 11 0;
#X connect 3 0 23 0;
#X connect 5 0 3 1;
#X connect 5 0 6 0;
#X connect 7 0 8 0;
#X connect 8 0 0 0;
#X connect 8 0 30 0;
#X connect 9 0 28 0;
#X connect 11 0 10 0;
#X connect 12 0 8 1;
#X connect 23 0 22 0;
#X connect 28 0 7 0;
#X connect 29 0 27 0;
#X connect 30 0 13 0;
#X connect 31 0 7 1;
