#N canvas 329 247 930 563 10;
#X obj -2 1 cnv 15 500 140 empty empty empty 20 12 0 16 -261015 -99865
0;
#X text 13 48 Sélectionne chaque note l'une après l'autre;
#X text 14 116 Pour arrêter le son \, désactive DSP;
#X text 14 10 Pour jouer le patch \, active DSP dans la fenêtre principale
de Pure Data;
#X text 13 72 Choisi une octave;
#X text 14 94 Active le graphe;
#X obj 212 165 cnv 15 200 140 empty empty empty 20 12 0 14 -261873
-66577 0;
#X obj 285 196 hradio 15 1 1 3 empty empty empty 0 -8 0 10 -261347
-83269 -1 0;
#X floatatom 234 230 5 0 0 0 - - -;
#X obj 285 229 select 0 1 2;
#X text 236 168 Clique pour changer d'octave;
#X obj -1 165 cnv 15 200 140 empty empty empty 20 12 0 14 -261873 -66577
0;
#X msg 267 272 0.5;
#X msg 306 272 1;
#X msg 346 273 2;
#X text 139 254 La;
#X msg 138 273 440;
#X text 10 198 à l'octave inférieure 220Hz;
#X text 10 222 à l'octave supérieure 880Hz;
#X obj 144 327 cnv 15 450 65 empty empty empty 20 12 0 14 -249849 -66577
0;
#X obj 182 332 *;
#X floatatom 200 363 5 0 0 0 - - -;
#X text 217 332 Multiplie la fréquence de la note par le coefficient
choisi;
#X obj 141 404 cnv 15 100 100 empty empty empty 20 12 0 14 -237566
-66577 0;
#X obj 172 478 dac~;
#X obj 183 419 osc~;
#X obj 260 403 cnv 15 450 100 empty empty empty 20 12 0 14 -261819
-66577 0;
#N canvas 0 22 450 278 (subpatch) 0;
#X array sine 300 float 0;
#X coords 0 1 299 -1 300 70 1 0 0;
#X restore 388 422 graph;
#X obj 277 475 tabwrite~ sine;
#X obj 277 447 metro 150;
#X obj 277 418 tgl 15 1 empty empty empty 17 7 0 10 -261234 -1 -1 0
1;
#X text 249 350 Quand la fréquence est elevée \, le son est aigu
\,;
#X text 251 369 et la période de la sinusoïde est petite.;
#X text 11 174 La fréquence du La est 440Hz;
#X connect 7 0 8 0;
#X connect 7 0 9 0;
#X connect 9 0 12 0;
#X connect 9 1 13 0;
#X connect 9 2 14 0;
#X connect 12 0 20 0;
#X connect 13 0 20 0;
#X connect 14 0 20 0;
#X connect 16 0 20 0;
#X connect 20 0 21 0;
#X connect 20 0 25 0;
#X connect 25 0 24 0;
#X connect 25 0 24 1;
#X connect 25 0 28 0;
#X connect 29 0 28 0;
#X connect 30 0 29 0;
#X coords 0 563 1 562 85 60 0;
