#N canvas 237 210 450 300 10;
#X obj 92 22 adc~;
#X obj 193 117 *~ 0.6;
#X obj 93 245 dac~;
#X obj 94 71 delwrite~ echo 500;
#X obj 95 157 delread~ echo 150;
#X connect 0 0 3 0;
#X connect 1 0 3 0;
#X connect 4 0 1 0;
#X connect 4 0 2 0;
#X connect 4 0 2 1;
