#N canvas 156 22 1067 733 10;
#X obj 561 484 dac~;
#X obj 481 484 unsig~ 150;
#X floatatom 481 520 5 0 0 0 - - -;
#X obj 445 240 mtof~;
#X obj 413 317 osc~;
#X obj 682 482 tabwrite~ sine;
#X obj 695 426 tgl 15 0 empty empty empty 17 7 0 10 -262144 -1 -1 1
1;
#X text 718 423 génère le graphe;
#X obj 695 451 metro 150;
#N canvas 226 207 450 278 (subpatch) 0;
#X array sine 300 float 0;
#X coords 0 1 299 -1 200 140 1 0 0;
#X restore 804 456 graph;
#X floatatom 489 241 5 0 0 0 - - -;
#X obj 634 538 pvu~;
#X obj 635 579 vu 15 120 empty empty -1 -8 0 10 -66577 -1 1 0;
#X text 570 710 affiche le nombre de décibels;
#X obj 492 208 hsl 128 15 0 127 0 0 empty empty empty -2 -8 0 10 -262144
-1 -1 7500 1;
#X obj 668 148 vsl 15 128 0 100 0 0 empty empty empty 0 -9 0 10 -262144
-1 -1 7800 1;
#X obj 668 302 / 100;
#X floatatom 668 342 5 0 0 0 - - -;
#X obj 353 368 unsig~ 150;
#X floatatom 354 405 5 0 0 0 - - -;
#X obj 569 393 *~;
#X text 692 181 Réglage du volume;
#X obj 307 72 hsl 32 15 0 31 0 0 empty empty empty -2 -8 0 10 -262144
-1 -1 1000 1;
#X floatatom 303 101 5 0 0 0 - - -;
#X text 246 52 fréquence du vibrato (0-31);
#X obj 266 113 osc~;
#X text 123 113 oscillateur du vibrato;
#X obj 399 79 vsl 15 32 0 31 0 0 empty empty empty 0 -9 0 10 -262144
-1 -1 1900 1;
#X obj 320 177 *~;
#X floatatom 405 128 5 0 0 0 - - -;
#X obj 258 232 unsig~ 150;
#X floatatom 258 268 5 0 0 0 - - -;
#X obj 413 275 +~;
#X text 433 185 frequence de l'oscilateur principal;
#X text 597 392 gestion du volume;
#X text 445 318 oscillateur principal;
#X text 425 88 amplitude du vibrato (0-31);
#X obj 113 163 tgl 15 0 empty empty empty 17 7 0 10 -262144 -1 -1 1
1;
#X obj 113 199 metro 150;
#X obj 114 235 tabwrite~ vibrato;
#N canvas 0 22 450 278 (subpatch) 0;
#X array vibrato 300 float 0;
#X coords 0 -100 299 100 200 140 1 0 0;
#X restore 32 288 graph;
#X obj 269 327 unsig~ 150;
#X floatatom 269 363 5 0 0 0 - - -;
#X connect 1 0 2 0;
#X connect 3 0 32 1;
#X connect 4 0 20 0;
#X connect 4 0 18 0;
#X connect 6 0 8 0;
#X connect 8 0 5 0;
#X connect 11 0 12 0;
#X connect 14 0 3 0;
#X connect 14 0 10 0;
#X connect 15 0 16 0;
#X connect 16 0 17 0;
#X connect 16 0 20 1;
#X connect 18 0 19 0;
#X connect 20 0 1 0;
#X connect 20 0 0 0;
#X connect 20 0 0 1;
#X connect 20 0 5 0;
#X connect 20 0 11 0;
#X connect 22 0 23 0;
#X connect 22 0 25 0;
#X connect 25 0 28 0;
#X connect 27 0 29 0;
#X connect 27 0 28 1;
#X connect 28 0 32 0;
#X connect 28 0 30 0;
#X connect 28 0 39 0;
#X connect 30 0 31 0;
#X connect 32 0 4 0;
#X connect 32 0 41 0;
#X connect 37 0 38 0;
#X connect 38 0 39 0;
#X connect 41 0 42 0;
