#N canvas 280 22 1013 752 10;
#X obj -7 3 cnv 15 500 130 empty empty empty 20 12 0 16 -261015 -99865
0;
#X text 9 108 Pour arrêter le son \, désactive DSP;
#X text 9 12 Pour jouer le patch \, active DSP dans la fenêtre principale
de Pure Data;
#X text 9 77 Active le graphe;
#X obj 31 417 cnv 15 120 70 empty empty empty 20 12 0 14 -237566 -66577
0;
#X obj 60 426 dac~;
#X obj 362 415 cnv 15 330 190 empty empty empty 20 12 0 14 -261819
-66577 0;
#N canvas 0 22 450 278 (subpatch) 0;
#X array multiplication 300 float 0;
#X coords 0 1 299 -1 300 70 1 0 0;
#X restore 377 522 graph;
#X obj 389 450 metro 150;
#X obj 388 424 tgl 15 1 empty empty empty 17 7 0 10 -261234 -1 -1 1
1;
#X text 9 52 Edite le message et change les notes si tu le souhaite.
;
#X obj 134 329 cnv 15 300 50 empty empty empty 20 12 0 14 -249849 -66577
0;
#X obj 164 416 cnv 15 160 180 empty empty empty 20 12 0 14 -228928
-66577 0;
#X obj 181 424 pvu~;
#X obj 182 466 vu 15 120 empty empty -1 -8 0 10 -66577 -1 1 0;
#X text 218 423 Volume Sonore;
#X text 218 438 en décibels (dB);
#X text 55 446 Sortie vers;
#X text 35 461 les haut-parleurs;
#X text 484 504 Valeurs reçues entre -1 et 1;
#X obj 388 479 tabwrite~ multiplication;
#X text 205 341 La multiplication change le volume;
#X obj 21 156 cnv 15 430 150 empty empty empty 20 12 0 14 -261873 -66577
0;
#X obj 53 203 nbx 5 14 -1e+37 1e+37 0 0 empty empty empty 0 -8 0 10
-262144 -1 -1 440 256;
#X msg 53 166 440;
#X text 120 195 Tu peux aussi taper directement;
#X text 119 210 les fréquences dans la boîte number;
#X obj 372 163 vsl 15 64 0 100 0 0 empty empty empty 0 -9 0 10 -262144
-1 -1 3100 1;
#X obj 360 254 / 100;
#X floatatom 385 282 5 0 0 0 - - -;
#X text 400 173 Règle le volume;
#X text 87 167 Clique sur la fréquence;
#X obj 166 344 *~;
#X obj 53 236 osc~;
#X connect 8 0 20 0;
#X connect 9 0 8 0;
#X connect 13 0 14 0;
#X connect 23 0 33 0;
#X connect 24 0 23 0;
#X connect 27 0 28 0;
#X connect 28 0 29 0;
#X connect 28 0 32 1;
#X connect 32 0 5 0;
#X connect 32 0 13 0;
#X connect 32 0 20 0;
#X connect 33 0 32 0;
#X coords 0 752 1 751 85 60 0;
