#N canvas 369 43 1013 752 10;
#X obj -7 3 cnv 15 500 90 empty empty empty 20 12 0 16 -261015 -99865
0;
#X text 9 52 Pour arrêter le son \, désactive DSP;
#X text 9 12 Pour jouer le patch \, active DSP dans la fenêtre principale
de Pure Data;
#X obj -63 197 cnv 15 680 200 empty empty empty 20 12 0 14 -249849
-66577 0;
#X msg -20 221 0;
#X text 20 202 on;
#X text -19 203 off;
#X obj -41 254 *~;
#X msg 17 221 1;
#X obj 21 310 lop~;
#X msg 417 218 0;
#X text 457 199 on;
#X text 418 200 off;
#X obj 393 250 *~;
#X msg 455 217 1;
#X obj -64 120 cnv 15 530 60 empty empty empty 20 12 0 14 -261873 -66577
0;
#X obj 393 146 noise~;
#X text 16 131 Le bruit blanc contient toutes les fréquences mélangées.
On va appliquer des filtres pour sélectionner certaines fréquences.
;
#X obj 196 402 +~;
#X obj 7 455 cnv 15 120 70 empty empty empty 20 12 0 14 -237566 -66577
0;
#X obj 36 464 dac~;
#X obj 338 453 cnv 15 330 190 empty empty empty 20 12 0 14 -261819
-66577 0;
#N canvas 0 22 450 278 (subpatch) 0;
#X array soustraction 300 float 0;
#X coords 0 1 299 -1 300 70 1 0 0;
#X restore 353 560 graph;
#X obj 365 488 metro 150;
#X obj 364 462 tgl 15 1 empty empty empty 17 7 0 10 -261234 -1 -1 1
1;
#X obj 140 454 cnv 15 160 180 empty empty empty 20 12 0 14 -228928
-66577 0;
#X obj 157 462 pvu~;
#X obj 158 504 vu 15 120 empty empty -1 -8 0 10 -66577 -1 1 0;
#X text 194 461 Volume Sonore;
#X text 194 476 en décibels (dB);
#X text 31 484 Sortie vers;
#X text 11 499 les haut-parleurs;
#X text 460 542 Valeurs reçues entre -1 et 1;
#X text 166 210 2 filtres sont prédéfinis :;
#X text 181 227 Low Pass;
#X text 244 228 High Pass;
#X obj 365 517 tabwrite~ soustraction;
#X msg 451 271 20;
#X msg 486 271 200;
#X msg 524 272 2000;
#X msg 563 271 20000;
#X obj 426 311 hip~;
#X floatatom -12 369 5 0 0 0 - - -;
#X obj -12 341 unsig~;
#X floatatom 441 369 5 0 0 0 - - -;
#X obj 441 339 unsig~;
#X msg 39 265 20;
#X msg 74 264 200;
#X msg 107 265 2000;
#X msg 147 265 20000;
#X obj -50 144 noise~;
#X connect 4 0 7 1;
#X connect 7 0 9 0;
#X connect 8 0 7 1;
#X connect 9 0 18 0;
#X connect 9 0 43 0;
#X connect 10 0 13 1;
#X connect 13 0 41 0;
#X connect 14 0 13 1;
#X connect 16 0 13 0;
#X connect 18 0 20 0;
#X connect 18 0 26 0;
#X connect 18 0 36 0;
#X connect 23 0 36 0;
#X connect 24 0 23 0;
#X connect 26 0 27 0;
#X connect 37 0 41 1;
#X connect 38 0 41 1;
#X connect 39 0 41 1;
#X connect 40 0 41 1;
#X connect 41 0 18 1;
#X connect 41 0 45 0;
#X connect 43 0 42 0;
#X connect 45 0 44 0;
#X connect 46 0 9 1;
#X connect 47 0 9 1;
#X connect 48 0 9 1;
#X connect 49 0 9 1;
#X connect 50 0 7 0;
#X coords 0 752 1 751 85 60 0;
