#N canvas 239 22 914 752 10;
#X obj -19 -2 cnv 15 500 130 empty empty empty 20 12 0 16 -261015 -99865
0;
#X text -3 103 Pour arrêter le son \, désactive DSP;
#X text -3 7 Pour jouer le patch \, active DSP dans la fenêtre principale
de Pure Data;
#X text -3 44 Connecte l'Arduino;
#X text -3 67 Clique sur devices puis open et change les données envoyées
par l'Arduino.;
#X obj 35 153 cnv 15 430 90 empty empty empty 20 12 0 14 -261873 -66577
0;
#X obj 79 194 comport 9600;
#X msg 80 164 devices;
#X msg 139 166 open 2;
#X floatatom 79 217 5 0 0 0 - - -;
#X text 185 192 entrées de l'Arduino par le port série;
#X obj 35 263 cnv 15 300 180 empty empty empty 20 12 0 14 -249849 -66577
0;
#X obj 69 324 osc~;
#X obj 237 319 osc~;
#X obj 70 276 * 10;
#X obj 237 273 * 20;
#X obj 121 369 r left;
#X obj 290 371 r right;
#X obj 69 369 *~ 0.2;
#X obj 237 371 *~ 0.2;
#X obj 246 409 *~ 1;
#X obj 91 408 *~ 1;
#X obj 123 493 cnv 15 120 70 empty empty empty 20 12 0 14 -237566 -66577
0;
#X obj 156 502 dac~;
#X text 150 523 Sortie vers;
#X obj 298 454 cnv 15 200 190 empty empty empty 20 12 0 14 -261819
-66577 0;
#N canvas 0 22 450 278 (subpatch) 0;
#X array right 300 float 0;
#X coords 0 1 299 -1 150 50 1 0 0;
#X restore 321 569 graph;
#X obj 319 495 metro 150;
#X obj 318 469 tgl 15 1 empty empty empty 17 7 0 10 -261234 -1 -1 1
1;
#X obj 320 527 tabwrite~ right;
#X text 416 551 comment;
#X obj -96 458 cnv 15 200 190 empty empty empty 20 12 0 14 -261819
-66577 0;
#N canvas 0 22 450 278 (subpatch) 0;
#X array left 300 float 0;
#X coords 0 1 299 -1 150 50 1 0 0;
#X restore -80 572 graph;
#X obj -80 497 metro 150;
#X obj -81 471 tgl 15 1 empty empty empty 17 7 0 10 -261234 -1 -1 1
1;
#X obj -79 529 tabwrite~ left;
#X connect 6 0 9 0;
#X connect 7 0 6 0;
#X connect 8 0 6 0;
#X connect 9 0 14 0;
#X connect 9 0 15 0;
#X connect 12 0 18 0;
#X connect 13 0 19 0;
#X connect 14 0 12 0;
#X connect 15 0 13 0;
#X connect 16 0 21 1;
#X connect 17 0 20 1;
#X connect 18 0 21 0;
#X connect 19 0 20 0;
#X connect 20 0 23 1;
#X connect 20 0 29 0;
#X connect 21 0 23 0;
#X connect 21 0 35 0;
#X connect 27 0 29 0;
#X connect 28 0 27 0;
#X connect 33 0 35 0;
#X connect 34 0 33 0;
